<svg width="1920" height="1080" viewBox="0 0 1920 1080" xmlns="http://www.w3.org/2000/svg"><rect width="1920" height="1080" fill="#df6688"/><path d="M 0,1080 C 0,1080 0,180 0,180 C 91.91794871794875,175.72051282051282 183.8358974358975,171.44102564102565 300,167 C 416.1641025641025,162.55897435897435 556.5743589743589,157.95641025641024 679,157 C 801.4256410256411,156.04358974358976 905.8666666666666,158.73333333333332 982,171 C 1058.1333333333334,183.26666666666668 1105.9589743589747,205.1102564102564 1223,222 C 1340.0410256410253,238.8897435897436 1526.2974358974357,250.825641025641 1654,243 C 1781.7025641025643,235.174358974359 1850.8512820512822,207.5871794871795 1920,180 C 1920,180 1920,1080 1920,1080 Z" fill="#3d1053" opacity="0.09999999999999999"/><path d="M 0,1080 C 0,1080 0,360 0,360 C 119.08974358974359,351.1923076923077 238.17948717948718,342.38461538461536 333,344 C 427.8205128205128,345.61538461538464 498.3717948717949,357.65384615384613 590,362 C 681.6282051282051,366.34615384615387 794.3333333333333,363.00000000000006 923,373 C 1051.6666666666667,382.99999999999994 1196.2948717948718,406.34615384615387 1302,396 C 1407.7051282051282,385.65384615384613 1474.4871794871794,341.61538461538464 1571,330 C 1667.5128205128206,318.38461538461536 1793.7564102564102,339.1923076923077 1920,360 C 1920,360 1920,1080 1920,1080 Z" fill="#3d1053" opacity="0.19999999999999998"/><path d="M 0,1080 C 0,1080 0,540 0,540 C 142.96153846153842,508.24102564102566 285.92307692307685,476.48205128205126 375,489 C 464.07692307692315,501.51794871794874 499.26923076923083,558.3128205128206 586,574 C 672.7307692307692,589.6871794871794 811,564.2666666666667 935,539 C 1059,513.7333333333333 1168.7307692307693,488.6205128205129 1291,476 C 1413.2692307692307,463.3794871794871 1548.076923076923,463.25128205128203 1655,476 C 1761.923076923077,488.74871794871797 1840.9615384615386,514.374358974359 1920,540 C 1920,540 1920,1080 1920,1080 Z" fill="#3d1053" opacity="0.3"/><path d="M 0,1080 C 0,1080 0,720 0,720 C 126.9897435897436,699.3461538461538 253.9794871794872,678.6923076923077 350,694 C 446.0205128205128,709.3076923076923 511.07179487179474,760.5769230769231 625,777 C 738.9282051282053,793.4230769230769 901.7333333333333,775 1016,747 C 1130.2666666666667,719 1195.9948717948716,681.4230769230769 1275,674 C 1354.0051282051284,666.5769230769231 1446.2871794871794,689.3076923076923 1556,702 C 1665.7128205128206,714.6923076923077 1792.8564102564103,717.3461538461538 1920,720 C 1920,720 1920,1080 1920,1080 Z" fill="#3d1053" opacity="0.39999999999999997"/><path d="M 0,1080 C 0,1080 0,900 0,900 C 104.90000000000003,914.5615384615385 209.80000000000007,929.123076923077 326,909 C 442.19999999999993,888.876923076923 569.6999999999999,834.0692307692309 663,844 C 756.3000000000001,853.9307692307691 815.4000000000001,928.6 925,948 C 1034.6,967.4 1194.7,931.5307692307692 1317,915 C 1439.3,898.4692307692308 1523.8,901.2769230769231 1618,902 C 1712.2,902.7230769230769 1816.1,901.3615384615384 1920,900 C 1920,900 1920,1080 1920,1080 Z" fill="#3d1053" opacity="0.49999999999999994"/></svg>